<?xml version="1.0" encoding="UTF-8"?>
<svg id="Capa_1" data-name="Capa 1" xmlns="http://www.w3.org/2000/svg" xmlns:xlink="http://www.w3.org/1999/xlink" viewBox="0 0 99.3 58">
  <defs>
    <style>
      .cls-1 {
        fill: #1f1f20;
      }

      .cls-2 {
        fill: url(#Degradado_sin_nombre_2);
      }
    </style>
    <linearGradient id="Degradado_sin_nombre_2" data-name="Degradado sin nombre 2" x1="42.36" y1="4.13" x2="75.16" y2="31.93" gradientTransform="translate(0 60) scale(1 -1)" gradientUnits="userSpaceOnUse">
      <stop offset="0" stop-color="#1f1f20"/>
      <stop offset=".3" stop-color="#222223"/>
      <stop offset=".5" stop-color="#2b2b2c"/>
      <stop offset=".6" stop-color="#3b3b3c"/>
      <stop offset=".8" stop-color="#525253"/>
      <stop offset="1" stop-color="#6f7070"/>
      <stop offset="1" stop-color="#777878"/>
    </linearGradient>
  </defs>
  <path class="cls-2" d="M76.1,30.34c-.1,6.7-.6,11.4-4.1,16.1-5.5,7.3-14.2,11.6-23.1,11.6s-8.1-.9-11.7-2.5c6.9-3.1,11.7-10,11.7-18.1s0-.5,0-.7l17.7-2.7,9.6-3.6-.1-.1Z"/>
  <path class="cls-1" d="M72,11.74h0l3.2-10.8c.2-.6-.4-1.2-1-.9l-10.8,4h-.1C59.1,1.54,54.1.14,48.9.14s-4.6.3-6.7.8c-2.8.7-5.4,1.7-7.8,3.1h-.1L23.5.04c-.6-.2-1.2.3-1,.9l3.2,10.8h0c-.5.6-.9,1.3-1.4,2,0,0-.1.2-.2.3-.4.7-.8,1.5-1.2,2.2-.8,1.8-1.3,3.9-1.3,6.1,0,8.3,6.7,15.1,15.1,15.1h16.7c7.5,0,14.2,3.5,18.5,8.9,3.6-4.8,5.8-10.8,5.8-17.3s-2.2-12.5-5.8-17.3h.1ZM34.6,32.74c-2,0-3.8-.8-5.1-2.1s-2.1-3.1-2.1-5.1h5.9c2,0,3.8.8,5.1,2.1s2.1,3.1,2.1,5.1h-5.9ZM70,30.64c-1.3,1.3-3.1,2.1-5.1,2.1h-5.9c0-2,.8-3.8,2.1-5.1,1.3-1.3,3.1-2.1,5.1-2.1h5.9c0,2-.8,3.8-2.1,5.1Z"/>
</svg>