<?xml version="1.0" encoding="UTF-8"?>
<svg id="Layer_2" data-name="Layer 2" xmlns="http://www.w3.org/2000/svg" viewBox="0 0 128.88 75.17">
  <defs>
    <style>
      .cls-1 {
        fill: #fff;
      }

      .cls-2 {
        fill: #bd932e;
      }

      .cls-3 {
        fill: #d5af34;
      }
    </style>
  </defs>
  <g id="Text">
    <path class="cls-1" d="M6.43.27c-.99-.73-2.36.09-2.19,1.3l3.29,24.7c4.58-4.45,11.06-8.3,18.89-11.26L6.43.27ZM73.59,42.85v19.91l-9.14,6.34-9.14-6.34v-19.91H.16c.99,17.94,29.42,32.32,64.35,32.32s63.36-14.38,64.35-32.32h-55.27ZM32.84,62.76c-8.29,0-15.01-6.72-15.01-15.01h12.35c8.29,0,15.01,6.72,15.01,15.01h-12.35ZM96.17,62.76h-12.35c0-8.29,6.73-15.01,15.02-15.01h12.34c0,8.29-6.72,15.01-15.01,15.01ZM123.91.27l-20.49,15.1c8.13,3.2,14.74,7.37,19.18,12.17.03-.08.05-.16.06-.23l3.44-25.73c.17-1.21-1.21-2.02-2.19-1.3Z"/>
    <path class="cls-3" d="M128.88,41.88c0-18.37-28.82-33.27-64.38-33.27h-.06v60.48l9.15-6.34v-19.92h55.27c.01-.31.03-.64.03-.96Z"/>
    <path class="cls-2" d="M0,41.88C0,23.52,28.82,8.61,64.38,8.61h.06v60.48l-9.15-6.34v-19.92H.03c-.01-.31-.03-.64-.03-.96Z"/>
  </g>
</svg>