<?xml version="1.0" encoding="UTF-8"?>
<svg id="Capa_2" xmlns="http://www.w3.org/2000/svg" version="1.1" viewBox="0 0 99.3 58">
  <!-- Generator: Adobe Illustrator 29.5.1, SVG Export Plug-In . SVG Version: 2.1.0 Build 141)  -->
  <defs>
    <style>
      .st0 {
        fill: #777878;
      }
    </style>
  </defs>
  <g id="Text">
    <path class="st0" d="M94.4,21.2c0,0,0-.1,0-.2l2.7-19.8c.1-.9-.9-1.6-1.7-1l-15.8,11.6c-8.3-3.3-18.7-5.2-30-5.2s-21.1,1.8-29.3,5L4.8.2c-.8-.6-1.8,0-1.7,1l2.6,19.1c-3.7,3.6-5.7,7.6-5.7,12,0,14.2,22.2,25.7,49.6,25.7s49.6-11.5,49.6-25.7-1.7-7.7-4.8-11.1ZM34.7,48.4h-9.5c-6.4,0-11.6-5.2-11.6-11.6h9.5c6.4,0,11.6,5.2,11.6,11.6h0ZM85.6,36.8c0,6.4-5.2,11.6-11.6,11.6h-9.5c0-6.4,5.2-11.6,11.6-11.6h9.5Z"/>
  </g>
</svg>