<?xml version="1.0" encoding="UTF-8"?>
<svg id="Capa_1" xmlns="http://www.w3.org/2000/svg" version="1.1" xmlns:xlink="http://www.w3.org/1999/xlink" viewBox="0 0 99.3 58">
  <!-- Generator: Adobe Illustrator 29.5.1, SVG Export Plug-In . SVG Version: 2.1.0 Build 141)  -->
  <defs>
    <style>
      .st0 {
        fill: #1f1f20;
      }

      .st1 {
        fill: #fff;
      }

      .st2 {
        fill: url(#Degradado_sin_nombre_2);
      }

      .st3 {
        fill: url(#Degradado_sin_nombre);
      }

      .st4 {
        fill: #777878;
      }
    </style>
    <linearGradient id="Degradado_sin_nombre" data-name="Degradado sin nombre" x1="60.9" y1="-81" x2="93.7" y2="-53.2" gradientTransform="translate(0 60) scale(1 -1)" gradientUnits="userSpaceOnUse">
      <stop offset="0" stop-color="#fff"/>
      <stop offset=".2" stop-color="#fbfbfb"/>
      <stop offset=".3" stop-color="#f2f2f2"/>
      <stop offset=".4" stop-color="#e1e1e1"/>
      <stop offset=".5" stop-color="#cacaca"/>
      <stop offset=".6" stop-color="#adadad"/>
      <stop offset=".7" stop-color="#888"/>
      <stop offset=".8" stop-color="#5d5d5d"/>
      <stop offset=".9" stop-color="#2c2c2c"/>
      <stop offset="1" stop-color="#000"/>
    </linearGradient>
    <linearGradient id="Degradado_sin_nombre_2" data-name="Degradado sin nombre 2" x1="42.4" y1="4.1" x2="75.2" y2="31.9" gradientTransform="translate(0 60) scale(1 -1)" gradientUnits="userSpaceOnUse">
      <stop offset="0" stop-color="#1f1f20"/>
      <stop offset=".3" stop-color="#222223"/>
      <stop offset=".5" stop-color="#2b2b2c"/>
      <stop offset=".6" stop-color="#3b3b3c"/>
      <stop offset=".8" stop-color="#525253"/>
      <stop offset="1" stop-color="#6f7070"/>
      <stop offset="1" stop-color="#777878"/>
    </linearGradient>
  </defs>
  <g id="Text">
    <path class="st4" d="M-98.9,19v-.2l2.7-19.8c0-.9-.9-1.6-1.7-1l-15.8,11.6c-8.3-3.3-18.7-5.2-30-5.2s-21.1,1.8-29.3,5l-15.5-11.4c-.8-.6-1.8,0-1.7,1l2.6,19.1c-3.7,3.6-5.8,7.6-5.8,12,0,14.2,22.3,25.7,49.7,25.7s49.6-11.5,49.6-25.7-1.7-7.7-4.8-11.1ZM-158.6,46.2h-9.5c-6.4,0-11.6-5.2-11.6-11.6h9.5c6.4,0,11.6,5.2,11.6,11.6h0ZM-107.7,34.6c0,6.4-5.2,11.6-11.6,11.6h-9.5c0-6.4,5.2-11.6,11.6-11.6,0,0,9.5,0,9.5,0Z"/>
  </g>
  <g>
    <path class="st3" d="M94.7,115.4c0,6.7-.6,11.4-4.1,16.1-5.5,7.3-14.2,11.6-23.1,11.6s-8.1-.9-11.7-2.5c6.9-3.1,11.7-10,11.7-18.1s0-.5,0-.7l17.7-2.7,9.6-3.6h0Z"/>
    <path class="st1" d="M90.6,96.8h0l3.2-10.8c.2-.6-.4-1.2-1-.9l-10.8,4h0c-4.2-2.5-9.2-3.9-14.4-3.9s-4.6.3-6.7.8c-2.8.7-5.4,1.7-7.8,3.1h0l-10.8-4c-.6-.2-1.2.3-1,.9l3.2,10.8h0c-.5.6-.9,1.3-1.4,2,0,0,0,.2-.2.3-.4.7-.8,1.5-1.2,2.2-.8,1.8-1.3,3.9-1.3,6.1,0,8.3,6.7,15.1,15.1,15.1h16.7c7.5,0,14.2,3.5,18.5,8.9,3.6-4.8,5.8-10.8,5.8-17.3s-2.2-12.5-5.8-17.3h0ZM53.2,117.7c-2,0-3.8-.8-5.1-2.1-1.3-1.3-2.1-3.1-2.1-5.1h5.9c2,0,3.8.8,5.1,2.1,1.3,1.3,2.1,3.1,2.1,5.1h-5.9ZM88.6,115.6c-1.3,1.3-3.1,2.1-5.1,2.1h-5.9c0-2,.8-3.8,2.1-5.1s3.1-2.1,5.1-2.1h5.9c0,2-.8,3.8-2.1,5.1Z"/>
  </g>
  <g>
    <path class="st2" d="M76.1,30.3c-.1,6.7-.6,11.4-4.1,16.1-5.5,7.3-14.2,11.6-23.1,11.6s-8.1-.9-11.7-2.5c6.9-3.1,11.7-10,11.7-18.1s0-.5,0-.7l17.7-2.7,9.6-3.6h0Z"/>
    <path class="st0" d="M72,11.7h0l3.2-10.8c.2-.6-.4-1.2-1-.9l-10.8,4h-.1C59.1,1.5,54.1.1,48.9.1s-4.6.3-6.7.8c-2.8.7-5.4,1.7-7.8,3.1h0L23.5,0c-.6-.2-1.2.3-1,.9l3.2,10.8h0c-.5.6-.9,1.3-1.4,2,0,0,0,.2-.2.3-.4.7-.8,1.5-1.2,2.2-.8,1.8-1.3,3.9-1.3,6.1,0,8.3,6.7,15.1,15.1,15.1h16.7c7.5,0,14.2,3.5,18.5,8.9,3.6-4.8,5.8-10.8,5.8-17.3s-2.2-12.5-5.8-17.3h.1ZM34.6,32.7c-2,0-3.8-.8-5.1-2.1s-2.1-3.1-2.1-5.1h5.9c2,0,3.8.8,5.1,2.1s2.1,3.1,2.1,5.1h-5.9ZM70,30.6c-1.3,1.3-3.1,2.1-5.1,2.1h-5.9c0-2,.8-3.8,2.1-5.1,1.3-1.3,3.1-2.1,5.1-2.1h5.9c0,2-.8,3.8-2.1,5.1Z"/>
  </g>
</svg>