<?xml version="1.0" encoding="UTF-8"?>
<svg xmlns="http://www.w3.org/2000/svg" version="1.1" xmlns:xlink="http://www.w3.org/1999/xlink" viewBox="0 0 99.3 58">
  <!-- Generator: Adobe Illustrator 29.5.1, SVG Export Plug-In . SVG Version: 2.1.0 Build 141)  -->
  <defs>
    <style>
      .st0 {
        fill: #1f1f20;
      }

      .st1 {
        fill: #fff;
      }

      .st2 {
        fill: url(#Degradado_sin_nombre_2);
      }

      .st3 {
        fill: url(#Degradado_sin_nombre_35);
      }

      .st4 {
        fill: #777878;
      }
    </style>
    <linearGradient id="Degradado_sin_nombre_2" data-name="Degradado sin nombre 2" x1="61.6" y1="141.8" x2="94.4" y2="114" gradientUnits="userSpaceOnUse">
      <stop offset="0" stop-color="#fff"/>
      <stop offset=".2" stop-color="#fbfbfb"/>
      <stop offset=".3" stop-color="#f2f2f2"/>
      <stop offset=".4" stop-color="#e1e1e1"/>
      <stop offset=".5" stop-color="#cacaca"/>
      <stop offset=".6" stop-color="#adadad"/>
      <stop offset=".7" stop-color="#888"/>
      <stop offset=".8" stop-color="#5d5d5d"/>
      <stop offset=".9" stop-color="#2c2c2c"/>
      <stop offset="1" stop-color="#000"/>
    </linearGradient>
    <linearGradient id="Degradado_sin_nombre_35" data-name="Degradado sin nombre 35" x1="124" y1="141.9" x2="156.8" y2="114.1" gradientUnits="userSpaceOnUse">
      <stop offset="0" stop-color="#1f1f20"/>
      <stop offset=".3" stop-color="#222223"/>
      <stop offset=".5" stop-color="#2b2b2c"/>
      <stop offset=".6" stop-color="#3b3b3c"/>
      <stop offset=".8" stop-color="#525253"/>
      <stop offset="1" stop-color="#6f7070"/>
      <stop offset="1" stop-color="#777878"/>
    </linearGradient>
  </defs>
  <g id="Capa_2">
    <g id="Text">
      <path class="st4" d="M-24.8,21.2v-.2L-22.1,1.2c0-.9-.9-1.6-1.7-1l-15.8,11.6c-8.3-3.3-18.7-5.2-30-5.2s-21.1,1.8-29.3,5L-114.4.2c-.8-.6-1.8,0-1.7,1l2.6,19.1c-3.7,3.6-5.8,7.6-5.8,12,0,14.2,22.3,25.7,49.7,25.7s49.6-11.5,49.6-25.7-1.7-7.7-4.8-11.1ZM-84.5,48.4h-9.5c-6.4,0-11.6-5.2-11.6-11.6h9.5c6.4,0,11.6,5.2,11.6,11.6h0ZM-33.6,36.8c0,6.4-5.2,11.6-11.6,11.6h-9.5c0-6.4,5.2-11.6,11.6-11.6,0,0,9.5,0,9.5,0Z"/>
    </g>
    <image width="318" height="327" transform="translate(27.3 5) scale(.1)" xlink:href="StudioIcon-1.png"/>
  </g>
  <g id="Capa_3">
    <g>
      <path class="st2" d="M94.7,115.4c-.1,6.7-.6,11.4-4.1,16.1-5.5,7.3-14.2,11.6-23.1,11.6s-8.1-.9-11.7-2.5c6.9-3.1,11.7-10,11.7-18.1s0-.5,0-.7l17.7-2.7,9.6-3.6Z"/>
      <path class="st1" d="M90.6,96.8s0,0,0,0l3.2-10.8c.2-.6-.4-1.2-1-.9l-10.8,4s0,0-.1,0c-4.2-2.5-9.2-3.9-14.4-3.9s-4.6.3-6.7.8c-2.8.7-5.4,1.7-7.8,3.1,0,0,0,0-.1,0l-10.8-4c-.6-.2-1.2.3-1,.9l3.2,10.8s0,0,0,0c-.5.6-.9,1.3-1.4,2,0,0-.1.2-.2.3-.4.7-.8,1.5-1.2,2.2-.8,1.8-1.3,3.9-1.3,6.1,0,8.3,6.7,15.1,15.1,15.1h16.7c7.5,0,14.2,3.5,18.5,8.9,3.6-4.8,5.8-10.8,5.8-17.3s-2.2-12.5-5.8-17.3ZM53.2,117.7c-2,0-3.8-.8-5.1-2.1-1.3-1.3-2.1-3.1-2.1-5.1h5.9c2,0,3.8.8,5.1,2.1,1.3,1.3,2.1,3.1,2.1,5.1h-5.9ZM88.6,115.6c-1.3,1.3-3.1,2.1-5.1,2.1h-5.9c0-2,.8-3.8,2.1-5.1,1.3-1.3,3.1-2.1,5.1-2.1h5.9c0,2-.8,3.8-2.1,5.1Z"/>
    </g>
    <path class="st3" d="M157,115.5c-.1,6.7-.6,11.4-4.1,16.1-5.5,7.3-14.2,11.6-23.1,11.6s-8.1-.9-11.7-2.5c6.9-3.1,11.7-10,11.7-18.1s0-.5,0-.7l17.7-2.7,9.6-3.6Z"/>
    <path class="st0" d="M152.9,96.9s0,0,0,0l3.2-10.8c.2-.6-.4-1.2-1-.9l-10.8,4s0,0-.1,0c-4.2-2.5-9.2-3.9-14.4-3.9s-4.6.3-6.7.8c-2.8.7-5.4,1.7-7.8,3.1,0,0,0,0-.1,0l-10.8-4c-.6-.2-1.2.3-1,.9l3.2,10.8s0,0,0,0c-.5.6-.9,1.3-1.4,2,0,0-.1.2-.2.3-.4.7-.8,1.5-1.2,2.2-.8,1.8-1.3,3.9-1.3,6.1,0,8.3,6.7,15.1,15.1,15.1h16.7c7.5,0,14.2,3.5,18.5,8.9,3.6-4.8,5.8-10.8,5.8-17.3s-2.2-12.5-5.8-17.3ZM115.5,117.9c-2,0-3.8-.8-5.1-2.1-1.3-1.3-2.1-3.1-2.1-5.1h5.9c2,0,3.8.8,5.1,2.1,1.3,1.3,2.1,3.1,2.1,5.1h-5.9ZM150.9,115.8c-1.3,1.3-3.1,2.1-5.1,2.1h-5.9c0-2,.8-3.8,2.1-5.1,1.3-1.3,3.1-2.1,5.1-2.1h5.9c0,2-.8,3.8-2.1,5.1Z"/>
  </g>
</svg>